<svg id="Layer_2" xmlns="http://www.w3.org/2000/svg" viewBox="0 0 300.28 535.37">
    <defs>
        <style>
            .cls-1{fill:#fff}.cls-6{fill:#f1c40f;stroke:#000;stroke-miterlimit:10}
        </style>
    </defs>
    <g id="Layer_2-2">
        <path d="m153.95 101.08-9.99-.54c2.78-51.55-16.5-96.07-16.69-96.51L136.42 0c.84 1.9 20.44 47.17 17.53 101.08Z" style="fill:#855400"/>
        <path d="M155.35 138.25c-18.48-.9-37.03-17.86-71.94-15.97-34.92 1.89-62.45 27.32-77.12 72.54-14.67 45.22 7.02 119.61 21.53 145.51 14.51 25.89 46.53 60.82 73.42 63.4 26.9 2.58 32.24-3.12 42.22-2.54s24.39 9.44 39.97 9.35c15.58-.09 36.01-6.91 59.67-34.57 23.66-27.66 55.29-88.92 57.04-135.9 1.75-46.98-14.64-74.98-31.79-90.01-17.15-15.03-34.89-20.07-52.86-21.12s-41.67 10.21-60.15 9.32Z" style="fill:#e7283c"/>
        <path d="M226.11 50.42c-40.64-7.39-114.32 45.88-83.6 76.25 31.25 30.88 79.03-49.47 83.6-76.25Z" style="fill:#2ecc71"/>
        <ellipse class="cls-1" cx="131.89" cy="203.87" rx="35" ry="53.5"/>
        <circle cx="149.39" cy="209.87" r="9"/>
        <path d="M268.36 150.06c-6.44-5.65-12.97-9.88-19.56-13.03-.7 66.94-6.88 184.34-38.58 266.58 10.02-5.17 21.05-13.8 32.89-27.64 23.66-27.66 55.29-88.92 57.04-135.9 1.75-46.98-14.64-74.98-31.79-90.01Z" style="fill:#c0283c"/>
        <ellipse class="cls-1" cx="240.89" cy="212.87" rx="35" ry="53.5"/>
        <circle cx="253.39" cy="216.87" r="9"/>
        <path class="cls-6" d="M40.77 514.02c6.93 9.44 47.66 28.33 53.29 17.7s10.4-37.77 4.33-77.89c-6.07-40.13-14.3-67.14 0-99.96 14.3-32.82-27.16-16.03-27.16-16.03s-37.4 166.73-30.46 176.17Z"/>
        <path class="cls-6" d="M25.59 293.38c24.82 6.06 77.24 52.1 135.12 47.15 57.88-4.95 109.19-33.2 123.3-31.28s5.06 39.49-25.26 46.46c-30.32 6.96-59.57 18.9-122.32 13.85C73.69 364.5-.86 321.78.52 314.58s.26-27.25 25.08-21.2Z"/>
        <path class="cls-6" d="M79.89 302.32c7.74 1.92 10.59 8.18 11 12.03 4.48-.96 14.67 2.89 15.48 7.7s-26.48 17.8-31.78 41.86c-5.3 24.06 17.11 114.51 1.63 117.4s-43.59-5.77-44.41-14.92c-.81-9.14 8.21-83.61 5.74-97.38-2.48-13.77 34.6-68.62 42.34-66.69Z"/>
    </g>
</svg>
