<svg id="Layer_2" xmlns="http://www.w3.org/2000/svg" viewBox="0 0 452.81 596.21">
    <defs>
        <style>
            .cls-1{fill:#fff}
        </style>
    </defs>
    <g id="Layer_2-2">
        <path d="M4.03 559.54c-6.06-23.12-4.69-12.15.22-36.63 22.35-25.06 127.74-47.72 228.28-135.03s78.81-270.19 86.55-289.27c-20.16-34.1-32.08-58.83-34.05-56.24l34.3-31.32s22.5 52.9 33.07 61.14 39.76 12.56 72.06 41.96c32.3 29.4 57.85 221.97-46.03 333.57-103.88 111.59-220.65 145.22-244.16 148.14-23.51 2.92-106.55-12.21-130.24-36.31Z" style="fill:#f1f60f"/>
        <path d="M305.23.07c-4.9-.98-23.14 9.24-29.2 16.37-6.07 7.12 9 25.93 9 25.93l34.3-31.32s-9.2-10-14.1-10.98Z" style="fill:#855400"/>
        <ellipse class="cls-1" cx="299.26" cy="194.18" rx="53.5" ry="35" transform="rotate(-86.49 299.258 194.181)"/>
        <circle cx="282.55" cy="197.16" r="9"/>
        <ellipse class="cls-1" cx="384.71" cy="189.4" rx="53.5" ry="35" transform="rotate(-86.49 384.713 189.405)"/>
        <circle cx="368.06" cy="191.39" r="9"/>
        <path d="M413.7 258.77c-48.27 180.44-206.87 272.4-298.81 336.82 8.1.71 14.85.82 19.38.26 23.51-2.92 140.27-36.55 244.16-148.14 101.77-109.32 79.32-296.34 47.99-331.56 2.17 33.8 3 83.85-12.72 142.63Z" style="fill:#f1e10f"/>
    </g>
</svg>
