<svg id="Layer_2" xmlns="http://www.w3.org/2000/svg" viewBox="0 0 452.81 613.57">
    <defs>
        <style>
            .cls-1{fill:#fff}.cls-4{fill:#8e44ad}
        </style>
    </defs>
    <g id="Layer_2-2">
        <path d="M4.03 576.89c-6.06-23.12-4.69-12.15.22-36.63 22.35-25.06 127.74-47.72 228.28-135.03s78.81-270.19 86.55-289.27c-20.16-34.1-16.9-57.92-18.88-55.33l19.12-32.23s22.5 52.9 33.07 61.14c10.57 8.23 39.76 12.56 72.06 41.96 32.3 29.4 57.85 221.97-46.03 333.57-103.88 111.59-220.65 145.22-244.16 148.14C110.75 616.13 27.71 601 4.02 576.9Z" style="fill:#f1f60f"/>
        <ellipse class="cls-1" cx="299.26" cy="211.54" rx="53.5" ry="35" transform="rotate(-86.49 299.253 211.539)"/>
        <circle cx="287.2" cy="206.63" r="9"/>
        <ellipse class="cls-1" cx="384.71" cy="206.76" rx="53.5" ry="35" transform="rotate(-86.49 384.708 206.763)"/>
        <circle cx="368.2" cy="205.63" r="9"/>
        <path d="M413.7 276.13c-48.27 180.44-206.87 272.4-298.81 336.82 8.1.71 14.85.82 19.38.26 23.51-2.92 140.27-36.55 244.16-148.14 101.77-109.32 79.32-296.34 47.99-331.56 2.17 33.8 3 83.85-12.72 142.63Z" style="fill:#f1e10f"/>
        <path d="M351.75 13.91c-40.2 3.02-69.19 53.42-64.74 112.56l145.59-10.94c-4.45-59.15-40.64-104.64-80.84-101.62Z" style="fill:#9b59b6"/>
        <path class="cls-4" transform="rotate(-4.3 359.444 116.99)" d="M283.69 106.63H435.3v20.71H283.69z"/>
        <circle class="cls-4" cx="351.5" cy="10.59" r="10.59"/>
    </g>
</svg>
