<svg id="Layer_2" xmlns="http://www.w3.org/2000/svg" viewBox="0 0 719 713">
    <defs>
        <style>
            .cls-2{fill:#fff}.cls-3{fill:#e74c3c}.cls-4{fill:#e7283c}.cls-5{fill:#805400}.cls-7{fill:#c0392b}.cls-8{fill:#541b00}.cls-10{fill:#2c3e50}.cls-11{fill:#34495e}
        </style>
    </defs>
    <g id="Layer_2-2">
        <path class="cls-4" d="M189.41 310.37c-9.16-.24-18.53-8.44-35.79-7.13-17.27 1.31-30.62 14.21-37.39 36.76-6.77 22.55 4.78 59.15 12.24 71.81 7.47 12.66 23.7 29.61 37.04 30.59 13.34.98 15.93-1.9 20.88-1.72 4.95.18 12.18 4.41 19.89 4.2 7.71-.21 17.76-3.81 29.17-17.77 11.41-13.95 26.41-44.63 26.76-67.91s-8.07-36.97-16.72-44.22c-8.66-7.25-17.49-9.56-26.4-9.88-8.91-.33-20.52 5.51-29.68 5.27ZM340.62 318.32c-9.15.37-19.05-7.17-36.19-4.7-17.14 2.48-29.6 16.24-34.83 39.19-5.24 22.95 8.75 58.69 17.06 70.82 8.3 12.13 25.64 27.94 39.02 28.03 13.38.08 15.76-2.97 20.71-3.12 4.95-.15 12.45 3.58 20.13 2.85s17.46-5 27.9-19.69c10.45-14.69 23.34-46.31 22.13-69.56-1.22-23.25-10.54-36.34-19.66-42.99-9.12-6.65-18.1-8.36-27.01-8.08-8.91.28-20.1 6.88-29.26 7.26Z"/>
        <path d="M298.76 274.53c-7.28-11.95-11.93-26.84-13.83-44.26-2.02-18.52-.46-36.04 1.05-46.78 1.28-4.43 1.97-8.62 1.93-12.49l-5.94.06c0 .23-.01.47-.01.71-.27 1.25-1.07 5.09-1.88 10.78-5.12 16.95-20.6 40.36-45.55 68.73-23.85 27.11-48.09 49.24-48.33 49.46l4 4.39c3.2-2.92 64.03-58.61 88.06-103.45-.43 8.72-.38 18.7.75 29.1 1.98 18.33 6.91 34.07 14.64 46.79 9.76 16.05 23.98 27.26 42.26 33.33l1.87-5.64c-16.89-5.6-30.01-15.93-39.02-30.71Z" style="fill:#00a218"/>
        <ellipse class="cls-2" cx="227.5" cy="320" rx="35" ry="53.5"/>
        <circle cx="245" cy="326" r="9"/>
        <ellipse class="cls-2" cx="321.5" cy="326" rx="35" ry="53.5"/>
        <circle cx="334" cy="330" r="9"/>
        <path class="cls-8" d="M23 502h134v179H23zM23 128h25v347H23zM534 128h25v347h-25z"/>
        <path class="cls-5" d="M719 713H140L0 461h579l140 252z"/>
        <path style="fill:none;stroke:#541b00;stroke-miterlimit:10;stroke-width:4px" d="M83 580h546"/>
        <path class="cls-5" d="M0 0h588v141H0z"/>
        <text transform="translate(118.92 109.25)" style="fill:#bdc3c7;font-family:Roboto-Regular,Roboto;font-size:105.21px"><tspan x="0" y="0">Mützen</tspan></text>
        <path d="M135.09 485.11c-34.46 2.59-60.07 35.72-57.19 73.99l124.8-9.38c-2.88-38.27-33.15-67.2-67.61-64.61Z" style="fill:#9b59b6"/>
        <path transform="rotate(-4.3 140.036 550.745)" style="fill:#8e44ad" d="M75.06 542.08h129.96v17.75H75.06z"/>
        <path class="cls-3" d="M311.92 482.32c-34.26 4.54-57.95 39.06-52.9 77.11l124.06-16.44c-5.04-38.05-36.9-65.21-71.16-60.67Z"/>
        <path class="cls-7" transform="rotate(-7.55 320.514 547.59)" d="M255.61 538.91h129.96v17.75H255.61z"/>
        <path class="cls-11" d="M490.46 481.11c-34.46 2.59-60.07 35.72-57.19 73.99l124.8-9.38c-2.88-38.27-33.15-67.2-67.61-64.61Z"/>
        <path class="cls-10" transform="rotate(-4.3 495.22 546.741)" d="M430.43 538.08h129.96v17.75H430.43z"/>
        <path class="cls-3" d="M211.28 598.9c-34.26 4.54-56.62 49.08-49.94 99.48l124.06-16.44c-6.68-50.4-39.86-87.58-74.12-83.04Z"/>
        <path class="cls-7" transform="rotate(-7.55 222.833 686.513)" d="M157.94 677.85H287.9v17.75H157.94z"/>
        <circle class="cls-7" cx="210.9" cy="596.07" r="9.08"/>
        <path class="cls-11" d="M372.76 598.41c-33.85 6.98-52.95 53.01-42.68 102.8l122.56-25.29c-10.28-49.79-46.04-84.49-79.89-77.51Z"/>
        <path class="cls-10" transform="rotate(-11.66 390.692 685.204)" d="M325.69 676.3h129.96v17.75H325.69z"/>
        <circle class="cls-10" cx="372.18" cy="595.61" r="9.08"/>
    </g>
</svg>
