<svg id="Layer_2" xmlns="http://www.w3.org/2000/svg" viewBox="0 0 1919.2 339.25">
    <defs>
        <style>
            .cls-1{fill:#257708}
        </style>
    </defs>
    <g id="Layer_2-2">
        <path class="cls-1" d="M0 231c94.65 35.46 213.7 63.53 344.39 78.21 323.26 36.32 595.29-23 607.59-132.49C958.89 115.21 882.36 50.95 756.64 0H0v231Z"/>
        <path d="M500.24 174.71c7.15 109.95 276.09 181.97 600.7 160.86 324.61-21.11 581.96-127.35 574.82-237.29-2.48-38.07-36.35-71.6-93.06-98.29H725.46C584.79 45.6 496 109.5 500.24 174.7Z" style="fill:#27ae60"/>
        <path class="cls-1" d="M1023.23 0c-35.75 40.42-51.34 79.16-41.35 112.34 31.77 105.5 310.03 114.99 621.51 21.18 121.64-36.63 230.36-83.6 315.81-133.53h-895.96Z"/>
    </g>
</svg>
